<?xml version="1.0" encoding="utf-8"?>
<!-- Generator: Adobe Illustrator 23.0.1, SVG Export Plug-In . SVG Version: 6.00 Build 0)  -->
<svg version="1.1" id="Layer_1" xmlns="http://www.w3.org/2000/svg" xmlns:xlink="http://www.w3.org/1999/xlink" x="0px" y="0px"
	 viewBox="0 0 82 82" style="enable-background:new 0 0 82 82;" xml:space="preserve">
<style type="text/css">
	.st0{fill:#FFF6D3;}
	.st1{display:none;fill:#333333;}
	.st2{display:none;fill:#D6AB00;}
	.st3{fill:#EDD18C;}
</style>
<path class="st0" d="M54,0H28C12.5,0,0,12.5,0,28v26c0,15.5,12.5,28,28,28h26c15.5,0,28-12.5,28-28V28C82,12.5,69.5,0,54,0z"/>
<path class="st1" d="M45.5,46.8c-0.1,0-0.3,0-0.4-0.1c-0.1,0-0.2-0.1-0.3-0.2c-0.1-0.1-0.2-0.2-0.2-0.3c0-0.1-0.1-0.2-0.1-0.4
	c0-0.1,0-0.3,0.1-0.4c0-0.1,0.1-0.2,0.2-0.3c0.1-0.1,0.2-0.2,0.3-0.2c0.1,0,0.2-0.1,0.4-0.1h3.5c1.6,0,3.1-0.6,4.2-1.7
	c0.6-0.5,1-1.2,1.3-1.9c0.3-0.7,0.5-1.5,0.5-2.2c0-0.8-0.2-1.5-0.5-2.2c-0.3-0.7-0.7-1.3-1.3-1.9c-1.1-1.1-2.6-1.7-4.2-1.7
	c-0.2,0-0.4,0-0.6,0c-0.2,0-0.4,0-0.6,0.1c-0.2,0-0.5,0-0.7-0.1c-0.2-0.1-0.4-0.3-0.5-0.5c-0.6-1.5-1.6-2.7-2.9-3.6
	c-1.5-1-3.3-1.5-5.2-1.3c-1.8,0.2-3.5,0.9-4.8,2.2c-0.7,0.7-1.3,1.5-1.7,2.5c-0.4,0.9-0.6,1.9-0.6,2.9c0,0,0,0.1,0,0.1v0
	c0,0.3-0.1,0.5-0.3,0.7c-0.2,0.2-0.4,0.3-0.7,0.3h-0.1l-0.2,0h-0.1c-1.1,0-2.2,0.4-3,1.2c-0.4,0.4-0.7,0.8-0.9,1.3
	c-0.2,0.5-0.3,1-0.3,1.6c0,0.5,0.1,1.1,0.3,1.6c0.2,0.5,0.5,0.9,0.9,1.3c0.8,0.8,1.9,1.2,3,1.2h4.8c0.3,0,0.5,0.1,0.7,0.3
	c0.2,0.2,0.3,0.4,0.3,0.7c0,0.3-0.1,0.5-0.3,0.7c-0.2,0.2-0.4,0.3-0.7,0.3h-4.8c-1.6,0-3.2-0.6-4.4-1.8c-0.6-0.6-1-1.2-1.3-1.9
	c-0.3-0.7-0.5-1.5-0.5-2.3c0-0.8,0.2-1.6,0.5-2.3c0.3-0.7,0.8-1.4,1.3-1.9c1-1,2.3-1.6,3.8-1.7c0.2-2.3,1.2-4.4,2.9-6
	c1.6-1.6,3.8-2.6,6.1-2.8c2.3-0.2,4.6,0.4,6.5,1.6c1.4,0.9,2.6,2.2,3.3,3.7c0.3,0,0.6,0,0.8,0c2.1,0,4.1,0.8,5.6,2.3
	c0.7,0.7,1.3,1.6,1.7,2.5c0.4,0.9,0.6,1.9,0.6,3c0,1-0.2,2-0.6,3c-0.4,0.9-1,1.8-1.7,2.5c-1.5,1.5-3.5,2.3-5.6,2.3L45.5,46.8z"/>
<path class="st1" d="M39.5,36.1c0-0.3,0.1-0.5,0.3-0.7c0.2-0.2,0.4-0.3,0.7-0.3s0.5,0.1,0.7,0.3c0.2,0.2,0.3,0.4,0.3,0.7V55
	c0,0.3-0.1,0.5-0.3,0.7C41,55.9,40.8,56,40.5,56s-0.5-0.1-0.7-0.3c-0.2-0.2-0.3-0.4-0.3-0.7V36.1z"/>
<path class="st1" d="M47.3,40.8c0.1,0.1,0.2,0.2,0.2,0.3c0,0.1,0.1,0.2,0.1,0.4c0,0.1,0,0.3-0.1,0.4c0,0.1-0.1,0.2-0.2,0.3
	c-0.2,0.2-0.4,0.3-0.7,0.3s-0.5-0.1-0.7-0.3l-5.4-5.3l-5.4,5.3c-0.2,0.2-0.4,0.3-0.7,0.3s-0.5-0.1-0.7-0.3c-0.1-0.1-0.2-0.2-0.2-0.3
	c0-0.1-0.1-0.2-0.1-0.4c0-0.1,0-0.3,0.1-0.4c0-0.1,0.1-0.2,0.2-0.3l6.1-6c0.2-0.2,0.4-0.3,0.7-0.3c0.3,0,0.5,0.1,0.7,0.3L47.3,40.8
	L47.3,40.8z"/>
<path class="st2" d="M39.5,55V37.8l-4.4,4.3c-0.2,0.2-0.4,0.3-0.7,0.3s-0.5-0.1-0.7-0.3c-0.1-0.1-0.2-0.2-0.2-0.3
	c0-0.1-0.1-0.2-0.1-0.4c0-0.1,0-0.3,0.1-0.4c0-0.1,0.1-0.2,0.2-0.3l6.1-6c0.2-0.2,0.4-0.3,0.7-0.3c0.3,0,0.5,0.1,0.7,0.3l6.1,6
	c0.1,0.1,0.2,0.2,0.2,0.3c0,0.1,0.1,0.2,0.1,0.4c0,0.1,0,0.3-0.1,0.4c0,0.1-0.1,0.2-0.2,0.3c-0.2,0.2-0.4,0.3-0.7,0.3
	c-0.3,0-0.5-0.1-0.7-0.3l-4.4-4.3V55c0,0.3-0.1,0.5-0.3,0.7C41,55.9,40.8,56,40.5,56s-0.5-0.1-0.7-0.3C39.6,55.5,39.5,55.3,39.5,55z
	 M45.5,46.8c-0.3,0-0.5-0.1-0.7-0.3c-0.2-0.2-0.3-0.4-0.3-0.7c0-0.3,0.1-0.5,0.3-0.7c0.2-0.2,0.4-0.3,0.7-0.3h3.5
	c1.6,0,3.1-0.6,4.2-1.7c0.6-0.5,1-1.2,1.3-1.9c0.3-0.7,0.5-1.5,0.5-2.2s-0.2-1.5-0.5-2.2c-0.3-0.7-0.7-1.3-1.3-1.9
	c-1.1-1.1-2.6-1.7-4.2-1.7c-0.2,0-0.4,0-0.6,0c-0.2,0-0.4,0-0.6,0.1c-0.2,0-0.5,0-0.7-0.1c-0.2-0.1-0.4-0.3-0.5-0.5
	c-0.6-1.5-1.6-2.7-2.9-3.6c-1.5-1-3.3-1.5-5.2-1.3c-1.8,0.2-3.5,0.9-4.8,2.2c-0.7,0.7-1.3,1.5-1.7,2.5c-0.4,0.9-0.6,1.9-0.6,2.9
	c0,0,0,0.1,0,0.1v0c0,0.1,0,0.3-0.1,0.4c0,0.1-0.1,0.2-0.2,0.3c-0.1,0.1-0.2,0.2-0.3,0.2c-0.1,0-0.2,0.1-0.4,0.1h-0.1l-0.2,0h-0.1
	c-1.1,0-2.2,0.4-3,1.2c-0.4,0.4-0.7,0.8-0.9,1.3c-0.2,0.5-0.3,1-0.3,1.6c0,0.5,0.1,1.1,0.3,1.6c0.2,0.5,0.5,0.9,0.9,1.3
	c0.8,0.8,1.9,1.2,3,1.2h4.8c0.3,0,0.5,0.1,0.7,0.3s0.3,0.4,0.3,0.7c0,0.3-0.1,0.5-0.3,0.7s-0.4,0.3-0.7,0.3h-4.8
	c-1.6,0-3.2-0.6-4.4-1.8c-0.6-0.6-1-1.2-1.3-1.9c-0.3-0.7-0.5-1.5-0.5-2.3c0-0.8,0.2-1.6,0.5-2.3s0.8-1.4,1.3-1.9
	c1-1,2.3-1.6,3.8-1.7c0.2-2.3,1.2-4.4,2.9-6c1.6-1.6,3.8-2.6,6.1-2.8c2.3-0.2,4.6,0.4,6.5,1.6c1.4,0.9,2.6,2.2,3.3,3.7
	c0.3,0,0.6,0,0.8,0c2.1,0,4.1,0.8,5.6,2.3c0.7,0.7,1.3,1.6,1.7,2.5c0.4,0.9,0.6,1.9,0.6,3c0,1-0.2,2-0.6,3c-0.4,0.9-1,1.8-1.7,2.5
	c-1.5,1.5-3.5,2.3-5.6,2.3L45.5,46.8z"/>
<g>
	<title>a</title>
	<path class="st3" d="M47.6,34.2c-0.2,0.1-0.5,0.2-0.8,0.2c-0.3,0-0.7,0-1-0.1c-0.3-0.1-0.5-0.2-0.8-0.3L44.7,35
		c0.2,0.1,0.4,0.2,0.6,0.3c0.4,0.1,0.7,0.2,1.1,0.2v1.1h1.2v-1.1c0.3,0,0.5-0.1,0.8-0.2c0.2-0.1,0.4-0.2,0.5-0.4
		c0.1-0.1,0.2-0.3,0.3-0.5c0.1-0.2,0.1-0.4,0.1-0.6c0-0.2,0-0.5-0.1-0.7c-0.1-0.2-0.2-0.4-0.4-0.5c-0.2-0.2-0.4-0.3-0.6-0.4
		c-0.2-0.1-0.5-0.2-0.8-0.3c-0.2-0.1-0.3-0.1-0.5-0.2c-0.1,0-0.2-0.1-0.3-0.2c-0.1,0-0.1-0.1-0.2-0.2c0-0.1-0.1-0.2-0.1-0.3
		c0-0.2,0.1-0.3,0.2-0.4c0.2-0.1,0.4-0.2,0.6-0.2c0.3,0,0.6,0,0.9,0.1c0.2,0.1,0.5,0.1,0.7,0.2l0.3-1.1c-0.2-0.1-0.4-0.1-0.6-0.2
		c-0.3-0.1-0.6-0.1-0.8-0.1v-1h-1.2v1c-0.2,0-0.5,0.1-0.7,0.2c-0.2,0.1-0.4,0.2-0.5,0.4c-0.1,0.2-0.2,0.3-0.3,0.5
		c-0.1,0.2-0.1,0.4-0.1,0.6c0,0.5,0.2,0.9,0.5,1.2c0.2,0.1,0.3,0.2,0.5,0.3c0.2,0.1,0.4,0.2,0.6,0.2c0.2,0.1,0.4,0.1,0.6,0.2
		c0.1,0.1,0.3,0.1,0.4,0.2c0.1,0.1,0.2,0.1,0.2,0.2c0.1,0.1,0.1,0.2,0.1,0.3C47.8,33.9,47.7,34.1,47.6,34.2z"/>
	<path class="st3" d="M41.9,40c1.4,0.9,3.1,1.4,4.8,1.5c0.1,0,0.2,0,0.3,0c0.1,0,0.2,0,0.3,0c1.7,0,3.4-0.5,4.8-1.5
		c2.5-1.6,4.1-4.3,4.2-7.3c0.1-3-1.2-6-3.7-7.8l-1.7-1.3l1.1-4.6c0.1-0.4-0.2-0.9-0.6-1c-0.1,0-0.1,0-0.2,0h-8.4
		c-0.4,0-0.8,0.4-0.8,0.8c0,0.1,0,0.1,0,0.2l1.1,4.6l-1.7,1.3c-2.4,1.8-3.8,4.8-3.7,7.8C37.8,35.7,39.3,38.4,41.9,40z M42.3,26.1
		l1.4-1.1c0.1,0.1,0.2,0.1,0.3,0.1h1.6c0.4,0,0.8-0.4,0.8-0.8s-0.4-0.8-0.8-0.8h-1l-0.9-4h6.4l-0.9,4h-0.7c-0.4,0-0.8,0.4-0.8,0.8
		s0.4,0.8,0.8,0.8h1.3c0.1,0,0.2,0,0.3-0.1l1.4,1.1c2,1.5,3.1,3.9,3,6.5c-0.1,2.5-1.4,4.7-3.4,6c-1.2,0.8-2.6,1.2-4,1.2
		c-0.2,0-0.3,0-0.5,0c-1.4,0-2.8-0.4-4-1.2c-2.1-1.3-3.4-3.6-3.4-6C39.2,30.1,40.3,27.7,42.3,26.1z"/>
	<path class="st3" d="M59.3,44.5c-0.5-0.7-1.5-0.9-2.3-0.6l-12,5.1l-1.1,0.3c-0.4,0.1-0.8,0.2-1.2,0.2c-0.9,0-2.1,0.1-2.3,0.1h-7.1
		c-0.1,0-0.2,0-0.3-0.1c-0.2-0.1-0.3-0.3-0.3-0.5c0-0.4,0.3-0.6,0.7-0.6h8c1,0,1.9-0.8,2-1.8c0-0.1,0-0.2,0-0.2c0-1-0.7-1.8-1.6-2
		c-4.5-0.9-8.9-1.9-13.5-1.6c-0.2,0-1.8,0.1-2.6,0.2v11.9l0,1c1.6,0.2,12.4,1.5,12.5,1.5c1.7,0.3,3.4,0.2,5-0.7c0,0,0,0,0,0
		c0,0,10.8-6.1,15.5-9.2c0.9-0.6,1.1-1.8,0.6-2.7C59.3,44.6,59.3,44.5,59.3,44.5z"/>
	<rect x="19.9" y="41.4" class="st3" width="4.3" height="14.3"/>
</g>
</svg>
