<?xml version="1.0" encoding="utf-8"?>
<!-- Generator: Adobe Illustrator 23.0.1, SVG Export Plug-In . SVG Version: 6.00 Build 0)  -->
<svg version="1.1" id="Layer_1" xmlns="http://www.w3.org/2000/svg" xmlns:xlink="http://www.w3.org/1999/xlink" x="0px" y="0px"
	 viewBox="0 0 82 82" style="enable-background:new 0 0 82 82;" xml:space="preserve">
<style type="text/css">
	.st0{fill:#F4F4FF;}
	.st1{display:none;fill:#5856D6;}
	.st2{display:none;fill-rule:evenodd;clip-rule:evenodd;fill:#84B5CB;stroke:#5E74AA;stroke-miterlimit:10;}
	.st3{fill-rule:evenodd;clip-rule:evenodd;fill:#5E74AA;}
	.st4{fill:none;stroke:#5E74AA;stroke-miterlimit:10;}
	.st5{display:none;fill-rule:evenodd;clip-rule:evenodd;fill:#285680;stroke:#5E74AA;stroke-miterlimit:10;}
</style>
<path class="st0" d="M54,0H28C12.5,0,0,12.5,0,28v26c0,15.5,12.5,28,28,28h26c15.5,0,28-12.5,28-28V28C82,12.5,69.5,0,54,0z"/>
<path class="st1" d="M46.7,59.6l-3.3-3.4l-3.3,3.4c-0.1,0.1-0.3,0.2-0.4,0.3C39.5,60,39.3,60,39.2,60c-0.2,0-0.3,0-0.5-0.1
	s-0.3-0.2-0.4-0.3c-0.2-0.2-0.4-0.6-0.4-0.9c0-0.3,0.1-0.7,0.4-0.9l3.3-3.4L38.3,51c-0.2-0.2-0.4-0.6-0.4-0.9c0-0.3,0.1-0.7,0.4-0.9
	c0.1-0.1,0.3-0.2,0.4-0.3c0.2-0.1,0.3-0.1,0.5-0.1s0.3,0,0.5,0.1s0.3,0.2,0.4,0.3l3.3,3.4l3.3-3.4c0.1-0.1,0.3-0.2,0.4-0.3
	c0.2-0.1,0.3-0.1,0.5-0.1s0.3,0,0.5,0.1s0.3,0.2,0.4,0.3c0.2,0.2,0.4,0.6,0.4,0.9c0,0.3-0.1,0.7-0.4,0.9l-3.3,3.4l3.3,3.4
	c0.2,0.2,0.4,0.6,0.4,0.9c0,0.3-0.1,0.7-0.4,0.9c-0.1,0.1-0.3,0.2-0.4,0.3C47.9,60,47.8,60,47.6,60s-0.3,0-0.5-0.1
	C46.9,59.8,46.8,59.7,46.7,59.6z M22.1,53.8c0-0.7,0.2-1.5,0.7-2.1c0.4-0.6,1-1.1,1.7-1.4c0.7-0.3,1.4-0.3,2.2-0.2
	c0.7,0.2,1.4,0.5,1.9,1s0.9,1.2,1,1.9s0.1,1.5-0.2,2.2C29.1,56,28.6,56.6,28,57s-1.3,0.6-2.1,0.6c-1,0-2-0.4-2.7-1.1
	C22.5,55.8,22.1,54.8,22.1,53.8L22.1,53.8z M25.9,47.8c-0.3,0-0.5,0-0.8,0.1c0.8-2.9,2.1-5.7,3.9-8.1c1.8-2.5,4.1-4.6,6.8-6.1
	s5.6-2.5,8.7-2.9l-2.7-2.4c-0.3-0.2-0.4-0.5-0.4-0.9c0-0.3,0.1-0.7,0.3-0.9c0.1-0.1,0.2-0.2,0.4-0.3c0.1-0.1,0.3-0.1,0.5-0.1
	s0.3,0,0.5,0.1s0.3,0.1,0.4,0.3l5.1,4.6c0.3,0.2,0.4,0.5,0.4,0.9c0,0.3-0.1,0.7-0.3,0.9l-4.5,5c-0.1,0.1-0.2,0.2-0.4,0.3
	c-0.1,0.1-0.3,0.1-0.5,0.1s-0.3,0-0.5-0.1s-0.3-0.1-0.4-0.3c-0.3-0.2-0.4-0.5-0.4-0.9c0-0.3,0.1-0.7,0.3-0.9l2.5-3
	c-2.7,0.3-5.3,1.1-7.7,2.5s-4.4,3.2-6,5.4c-1.5,2.1-2.7,4.4-3.4,6.9C27.1,47.9,26.5,47.8,25.9,47.8L25.9,47.8z M53.5,31.7
	c0-0.7,0.2-1.5,0.7-2.1c0.4-0.6,1-1.1,1.7-1.4s1.4-0.3,2.2-0.2c0.7,0.2,1.4,0.5,1.9,1s0.9,1.2,1,1.9c0.1,0.7,0.1,1.5-0.2,2.2
	c-0.3,0.7-0.8,1.3-1.4,1.7c-0.6,0.4-1.3,0.6-2.1,0.6c-1,0-2-0.4-2.7-1.1C53.8,33.7,53.5,32.7,53.5,31.7L53.5,31.7z M29.8,33.8
	l-3.3-3.4l-3.3,3.4c-0.1,0.1-0.3,0.2-0.4,0.3c-0.2,0.1-0.3,0.1-0.5,0.1s-0.3,0-0.5-0.1s-0.3-0.2-0.4-0.3c-0.2-0.2-0.4-0.6-0.4-0.9
	c0-0.3,0.1-0.7,0.4-0.9l3.3-3.4l-3.3-3.4C21.1,25,21,24.6,21,24.3c0-0.3,0.1-0.7,0.4-0.9c0.1-0.1,0.3-0.2,0.4-0.3
	C22,23,22.1,23,22.3,23s0.3,0,0.5,0.1s0.3,0.2,0.4,0.3l3.3,3.4l3.3-3.4c0.1-0.1,0.3-0.2,0.4-0.3c0.2-0.1,0.3-0.1,0.5-0.1
	s0.3,0,0.5,0.1s0.3,0.2,0.4,0.3c0.2,0.2,0.4,0.6,0.4,0.9s-0.1,0.7-0.4,0.9l-3.3,3.4l3.3,3.4c0.2,0.2,0.4,0.6,0.4,0.9
	s-0.1,0.7-0.4,0.9c-0.1,0.1-0.3,0.2-0.4,0.3c-0.2,0.1-0.3,0.1-0.5,0.1s-0.3,0-0.5-0.1C30.1,34,29.9,33.9,29.8,33.8L29.8,33.8z"/>
<g>
	<title>041 - Loud Speaker</title>
	<desc>Created with Sketch.</desc>
	<g id="Page-1_1_">
		<g>
			<path id="Path_1_" class="st2" d="M21.9,36l1.4,3.5L21.9,43c-1.5,0-2.8-1.6-2.8-3.5S20.3,36,21.9,36z"/>
			<path class="st3" d="M59.5,39.5c0,1.9-1.2,3.5-2.8,3.5l-1.4-3.5l1.4-3.5C58.2,36,59.5,37.6,59.5,39.5z"/>
			<path class="st4" d="M32.2,60.6c-1.4,0-2.5-0.9-2.9-2.2L26.4,48l2.8-1.4l3.5,1.4l2.4,8.7c0.3,0.9,0.1,1.9-0.5,2.6
				C34,60.1,33.2,60.6,32.2,60.6z"/>
			<path class="st5" d="M37.2,46.5v4.2c0,0.8-0.6,1.4-1.4,1.4H26c-0.8,0-1.4-0.6-1.4-1.4v-4.2H37.2z"/>
			<path class="st4" d="M40,33.9V45c0,0.2,0,0.5-0.1,0.7c-0.3,1.2-1.4,2.1-2.7,2.1H24.6c-1.5,0-2.8-1.2-2.8-2.8V33.9
				c0-1.5,1.2-2.8,2.8-2.8h12.5c1.3,0,2.4,0.9,2.7,2.1C39.9,33.5,40,33.7,40,33.9z"/>
			<path class="st4" d="M39.9,33.2L39.9,33.2c0.1,0,7.1,0.9,11.2-7.7l2.1,13.9l-2.1,13.9C46.9,44.8,40,45.8,40,45.8h-0.1V33.2z"/>
			<path class="st5" d="M25.3,44.4c-0.4,0-0.7-0.3-0.7-0.7v-8.4c0-0.4,0.3-0.7,0.7-0.7c0.4,0,0.7,0.3,0.7,0.7v8.4
				C26,44.1,25.7,44.4,25.3,44.4z"/>
			<path class="st5" d="M28.8,44.4c-0.4,0-0.7-0.3-0.7-0.7v-8.4c0-0.4,0.3-0.7,0.7-0.7s0.7,0.3,0.7,0.7v8.4
				C29.5,44.1,29.2,44.4,28.8,44.4z"/>
			<path class="st5" d="M32.3,44.4c-0.4,0-0.7-0.3-0.7-0.7v-8.4c0-0.4,0.3-0.7,0.7-0.7s0.7,0.3,0.7,0.7v8.4
				C33,44.1,32.7,44.4,32.3,44.4z"/>
			<path class="st5" d="M35.8,44.4c-0.4,0-0.7-0.3-0.7-0.7v-8.4c0-0.4,0.3-0.7,0.7-0.7s0.7,0.3,0.7,0.7v8.4
				C36.5,44.1,36.2,44.4,35.8,44.4z"/>
			<path id="Rectangle_1_" class="st3" d="M52.5,24.2h2.8c0.8,0,1.4,0.6,1.4,1.4v27.9c0,0.8-0.6,1.4-1.4,1.4h-2.8
				c-0.8,0-1.4-0.6-1.4-1.4V25.6C51.1,24.8,51.7,24.2,52.5,24.2z"/>
		</g>
	</g>
</g>
</svg>
