<?xml version="1.0" encoding="utf-8"?>
<!-- Generator: Adobe Illustrator 23.0.1, SVG Export Plug-In . SVG Version: 6.00 Build 0)  -->
<svg version="1.1" id="Layer_1" xmlns="http://www.w3.org/2000/svg" xmlns:xlink="http://www.w3.org/1999/xlink" x="0px" y="0px"
	 viewBox="0 0 82 82" style="enable-background:new 0 0 82 82;" xml:space="preserve">
<style type="text/css">
	.st0{fill:#E4FFEE;}
	.st1{display:none;fill:#40975F;}
	.st2{fill:#36A877;}
</style>
<path class="st0" d="M54,0H28C12.5,0,0,12.5,0,28v26c0,15.5,12.5,28,28,28h26c15.5,0,28-12.5,28-28V28C82,12.5,69.5,0,54,0z"/>
<path class="st1" d="M39.9,60c-0.5,0-1.1-0.2-1.5-0.5c-0.4-0.3-0.7-0.8-0.8-1.4l-0.4-2.6c-0.8-0.3-1.7-0.6-2.4-1L32.6,56
	c-0.4,0.3-0.8,0.4-1.3,0.4c-0.3,0-0.6-0.1-0.9-0.2c-0.3-0.1-0.5-0.3-0.7-0.5l-2.3-2.3c-0.4-0.4-0.6-0.9-0.7-1.4
	c0-0.5,0.1-1.1,0.4-1.5l1.5-2.1c-0.4-0.8-0.8-1.6-1.1-2.5l-2.6-0.4c-0.5-0.1-1-0.4-1.4-0.8c-0.4-0.4-0.5-0.9-0.5-1.5v-3.3
	c0-0.5,0.2-1.1,0.5-1.5c0.3-0.4,0.8-0.7,1.4-0.8l2.6-0.4c0.3-0.9,0.6-1.7,1-2.5L27,32.6c-0.3-0.4-0.5-1-0.4-1.5c0-0.5,0.3-1,0.7-1.4
	l2.3-2.3c0.4-0.4,0.9-0.6,1.4-0.7c0.5,0,1.1,0.1,1.5,0.4l2.1,1.5c0.8-0.4,1.6-0.8,2.5-1.1l0.4-2.6c0.1-0.5,0.4-1,0.8-1.4
	c0.4-0.3,0.9-0.5,1.5-0.5h3.3c0.5,0,1.1,0.2,1.5,0.5c0.4,0.3,0.7,0.8,0.8,1.4l0.4,2.6c0.9,0.3,1.8,0.6,2.6,1.1l2.1-1.5
	c0.4-0.3,0.8-0.4,1.3-0.4c0.3,0,0.6,0.1,0.9,0.2c0.3,0.1,0.5,0.3,0.7,0.5l2.3,2.3c0.4,0.4,0.6,0.9,0.7,1.4c0,0.5-0.1,1.1-0.4,1.5
	l-1.5,2.1c0.4,0.8,0.8,1.6,1,2.5l2.6,0.4c0.5,0.1,1,0.4,1.4,0.8c0.3,0.4,0.5,0.9,0.5,1.5v3.3c0,0.5-0.2,1.1-0.5,1.5
	c-0.3,0.4-0.8,0.7-1.4,0.8l-2.6,0.4c-0.3,0.9-0.6,1.7-1,2.5l1.5,2.1c0.3,0.4,0.5,1,0.4,1.5s-0.3,1-0.7,1.4l-2.3,2.3
	c-0.4,0.4-0.9,0.6-1.4,0.7c-0.5,0-1.1-0.1-1.5-0.4l-2.1-1.5c-0.8,0.4-1.6,0.8-2.5,1l-0.4,2.6c-0.1,0.5-0.4,1-0.8,1.4
	c-0.4,0.3-0.9,0.5-1.5,0.5L39.9,60z M35.2,52.4c1,0.6,2.1,1,3.2,1.3c0.2,0,0.4,0.2,0.5,0.3c0.1,0.1,0.2,0.3,0.3,0.5l0.5,3.2
	c0,0,0,0.1,0.1,0.1c0,0,0.1,0,0.1,0h3.3c0,0,0.1,0,0.1,0c0,0,0.1-0.1,0.1-0.1l0.5-3.2c0-0.2,0.1-0.4,0.3-0.5
	c0.1-0.1,0.3-0.3,0.5-0.3c1.1-0.3,2.2-0.7,3.2-1.3c0.2-0.1,0.4-0.2,0.6-0.1c0.2,0,0.4,0.1,0.6,0.2l2.7,1.9c0,0,0.1,0,0.1,0
	c0,0,0.1,0,0.1,0c0,0,0,0,0.1,0l2.3-2.3c0,0,0.1-0.1,0.1-0.1c0,0,0-0.1,0-0.1L52.4,49c-0.1-0.2-0.2-0.4-0.2-0.6c0-0.2,0-0.4,0.1-0.6
	c0.6-1,1.1-2.1,1.3-3.2c0.1-0.2,0.2-0.4,0.3-0.5c0.1-0.1,0.3-0.2,0.5-0.3l3.2-0.5c0,0,0.1,0,0.1-0.1c0,0,0-0.1,0-0.1h0v-3.3
	c0,0,0-0.1,0-0.1c0,0-0.1-0.1-0.1-0.1l-3.2-0.5c-0.2,0-0.4-0.1-0.5-0.3c-0.1-0.1-0.3-0.3-0.3-0.5c-0.3-1.1-0.7-2.2-1.3-3.2
	c-0.1-0.2-0.2-0.4-0.1-0.6c0-0.2,0.1-0.4,0.2-0.6l1.9-2.7c0,0,0-0.1,0-0.1c0,0,0-0.1-0.1-0.1L52,28.7c0,0,0,0-0.1,0c0,0-0.1,0-0.1,0
	c0,0-0.1,0-0.1,0L49,30.6c-0.2,0.1-0.4,0.2-0.6,0.2c-0.2,0-0.4,0-0.6-0.1c-1-0.6-2.2-1.1-3.3-1.4c-0.2-0.1-0.4-0.2-0.5-0.3
	c-0.1-0.1-0.2-0.3-0.3-0.5l-0.5-3.2c0,0,0-0.1-0.1-0.1c0,0-0.1,0-0.1,0h-3.3c0,0-0.1,0-0.1,0c0,0-0.1,0.1-0.1,0.1l-0.6,3.3
	c0,0.2-0.1,0.4-0.3,0.5c-0.1,0.1-0.3,0.3-0.5,0.3c-1.1,0.3-2.2,0.8-3.2,1.4c-0.2,0.1-0.4,0.2-0.6,0.1c-0.2,0-0.4-0.1-0.6-0.2
	l-2.7-1.9c0,0-0.1,0-0.1,0c0,0-0.1,0-0.1,0.1l-2.3,2.3c0,0-0.1,0.1-0.1,0.1c0,0,0,0.1,0,0.1l1.9,2.7c0.1,0.2,0.2,0.4,0.2,0.6
	c0,0.2,0,0.4-0.1,0.6c-0.6,1-1,2.1-1.3,3.2c-0.1,0.2-0.2,0.4-0.3,0.5s-0.3,0.2-0.5,0.3l-3.2,0.5c0,0-0.1,0-0.1,0.1c0,0,0,0.1,0,0.1
	v3.3c0,0,0,0.1,0,0.1c0,0,0.1,0.1,0.1,0.1l3.3,0.6c0.2,0,0.4,0.1,0.5,0.3c0.1,0.1,0.3,0.3,0.3,0.5c0.3,1.1,0.8,2.2,1.4,3.2
	c0.1,0.2,0.2,0.4,0.1,0.6c0,0.2-0.1,0.4-0.2,0.6l-1.9,2.7c0,0,0,0.1,0,0.1c0,0,0,0.1,0.1,0.1l2.3,2.3c0,0,0,0,0.1,0c0,0,0.1,0,0.1,0
	c0,0,0.1,0,0.1,0l2.7-1.9c0.2-0.1,0.4-0.2,0.6-0.2C34.9,52.2,35,52.3,35.2,52.4L35.2,52.4z M33.5,41.5c0-1.6,0.5-3.1,1.3-4.4
	c0.9-1.3,2.1-2.3,3.6-2.9c1.5-0.6,3.1-0.8,4.6-0.5c1.5,0.3,3,1.1,4.1,2.2c1.1,1.1,1.9,2.5,2.2,4.1c0.3,1.5,0.2,3.2-0.5,4.6
	c-0.6,1.5-1.6,2.7-2.9,3.6c-1.3,0.9-2.9,1.3-4.4,1.3c-2.1,0-4.1-0.8-5.6-2.3C34.4,45.6,33.5,43.6,33.5,41.5L33.5,41.5z M35.6,41.5
	c0,1.2,0.3,2.3,1,3.3c0.6,1,1.6,1.7,2.6,2.2c1.1,0.4,2.3,0.6,3.4,0.3c1.1-0.2,2.2-0.8,3-1.6c0.8-0.8,1.4-1.9,1.6-3
	c0.2-1.1,0.1-2.3-0.3-3.4c-0.4-1.1-1.2-2-2.2-2.6c-1-0.6-2.1-1-3.3-1c-1.6,0-3.1,0.6-4.2,1.7C36.2,38.4,35.6,39.9,35.6,41.5
	L35.6,41.5z"/>
<g>
	<title>b</title>
	<path class="st2" d="M55.1,23l-7.8,0.7c-0.1,0-0.2,0.1-0.2,0.2c0,0.1,0,0.1,0.1,0.1l2,1.9l-0.4,0.4l-0.3,0.3l-1.5,1.5
		c-0.6,0.6-1.1,1.2-1.7,1.8c-0.4,0.4-0.8,0.9-1.2,1.3c-1,1.1-1.9,2.1-2.8,3.2c-0.5,0.5-0.9,1.1-1.4,1.6c-0.1,0.1-0.2,0.3-0.4,0.4
		l-0.5-0.3L31.3,32l-1.2-0.7l-0.9,0.9l-1.1,1.2l-8.6,9.4l1.8,1.8l9.3-9h0l5.4,3.5l2.8,1.8l1,0.7l0.2,0.1l1.3-1.2
		c0.5-0.5,1.1-1,1.6-1.4c0.5-0.5,1-1,1.6-1.5c1-1,2-2,3-3c1-1,2-2,3-3.1L52,30l0.2-0.2l0.5-0.6l1.9,1.8c0.1,0.1,0.2,0.1,0.3,0
		c0,0,0.1-0.1,0.1-0.1l0.4-7.7C55.3,23.1,55.2,23,55.1,23C55.1,23,55.1,23,55.1,23z"/>
	<path class="st2" d="M21.4,54.9c0,0.4,0.3,0.7,0.7,0.7h4.7c0.4,0,0.7-0.3,0.7-0.7V41.3l-6,5.8V54.9z"/>
	<path class="st2" d="M29.7,39v15.8c0,0.4,0.3,0.7,0.7,0.7H35c0.4,0,0.7-0.3,0.7-0.7V41.1l-4.8-3.1L29.7,39z"/>
	<path class="st2" d="M40.3,44L38,42.6v12.3c0,0.4,0.3,0.7,0.7,0.7h4.7c0.4,0,0.7-0.3,0.7-0.7V40.7c-0.4,0.4-0.9,0.8-1.4,1.3
		L40.3,44z"/>
	<path class="st2" d="M48.9,36c-0.9,0.9-1.8,1.8-2.6,2.6v16.3c0,0.4,0.3,0.7,0.7,0.7h4.7c0.4,0,0.7-0.3,0.7-0.7V32.4l-0.5,0.5
		C50.9,33.8,49.9,34.9,48.9,36z"/>
</g>
</svg>
