<?xml version="1.0" encoding="utf-8"?>
<!-- Generator: Adobe Illustrator 23.0.1, SVG Export Plug-In . SVG Version: 6.00 Build 0)  -->
<svg version="1.1" id="Layer_1" xmlns="http://www.w3.org/2000/svg" xmlns:xlink="http://www.w3.org/1999/xlink" x="0px" y="0px"
	 viewBox="0 0 342 342" style="enable-background:new 0 0 342 342;" xml:space="preserve">
<style type="text/css">
	.st0{opacity:0.14;fill:#FF4361;enable-background:new    ;}
	.st1{fill:#FF4361;}
	.st2{fill-rule:evenodd;clip-rule:evenodd;fill:#FF4361;}
</style>
<path id="Rounded_Rectangle_1" class="st0" d="M103,0h140c55.2,0,100,44.8,100,100v142c0,55.2-44.8,100-100,100H103
	C47.8,342,3,297.2,3,242V100C3,44.8,47.8,0,103,0z"/>
<path id="Rounded_Rectangle_3" class="st1" d="M145.9,208.5L145.9,208.5c4.3,0,7.8,3.5,7.8,7.8v27.5c0,4.3-3.5,7.8-7.8,7.8l0,0
	c-4.3,0-7.8-3.5-7.8-7.8v-27.5C138.1,212,141.6,208.5,145.9,208.5z"/>
<path id="Polygon_1" class="st2" d="M139.9,174.9l-1.8-57.6c-0.3-9.5,9.7-15.7,18.1-11.4l52.4,27.4c8.6,4.5,8.9,16.6,0.6,21.6
	l-50.6,30.2C150.5,190,140.2,184.4,139.9,174.9z"/>
<path id="Rounded_Rectangle_2" class="st1" d="M93,225.4h160c3.5,0,6.3,2.8,6.3,6.3l0,0c0,3.5-2.8,6.3-6.3,6.3H93
	c-3.5,0-6.3-2.8-6.3-6.3l0,0C86.6,228.3,89.5,225.4,93,225.4z"/>
</svg>
