<?xml version="1.0" encoding="utf-8"?>
<!-- Generator: Adobe Illustrator 23.0.1, SVG Export Plug-In . SVG Version: 6.00 Build 0)  -->
<svg version="1.1" id="Layer_1" xmlns="http://www.w3.org/2000/svg" xmlns:xlink="http://www.w3.org/1999/xlink" x="0px" y="0px"
	 viewBox="0 0 82 82" style="enable-background:new 0 0 82 82;" xml:space="preserve">
<style type="text/css">
	.st0{fill:#EAF9FF;}
	.st1{display:none;fill:#3DABDD;}
	.st2{fill:#78E1F9;}
</style>
<path class="st0" d="M54,0H28C12.5,0,0,12.5,0,28v26c0,15.5,12.5,28,28,28h26c15.5,0,28-12.5,28-28V28C82,12.5,69.5,0,54,0z"/>
<path class="st1" d="M30.7,61c-0.1,0-0.2,0-0.4-0.1c-0.1,0-0.2-0.1-0.3-0.2c-0.1-0.1-0.2-0.2-0.2-0.3c0-0.1-0.1-0.2-0.1-0.4v-2.2
	c0-0.7,0.3-1.4,0.8-2c0.5-0.5,1.2-0.8,2-0.8h1.7v-4.2c0-0.2,0.1-0.4,0.2-0.6c0.1-0.2,0.3-0.3,0.5-0.3h0c1-0.2,1.9-0.8,2.5-1.7
	c0.6-0.8,0.9-1.9,0.8-2.9c-2.3-1.1-4.1-2.8-5.3-5.1c-0.5-0.8-0.9-1.6-1.2-2.5c-2-1.1-3.7-2.6-5-4.5c-1.3-1.9-2.2-4-2.5-6.2
	c-0.1-0.4,0-0.8,0.1-1.2c0.1-0.4,0.3-0.8,0.6-1.1c0.3-0.3,0.6-0.6,1-0.7c0.4-0.2,0.8-0.3,1.2-0.3h2.8V23c0-0.5,0.2-1,0.6-1.4
	c0.4-0.4,0.9-0.6,1.4-0.6h18.8c0.5,0,1,0.2,1.4,0.6c0.4,0.4,0.6,0.9,0.6,1.4v0.9h2.8c0.4,0,0.8,0.1,1.2,0.3c0.4,0.2,0.7,0.4,1,0.7
	c0.3,0.3,0.5,0.7,0.6,1.1c0.1,0.4,0.1,0.8,0.1,1.2c-0.4,2.2-1.2,4.4-2.5,6.2c-1.3,1.9-3,3.4-5,4.5c-0.4,0.9-0.8,1.7-1.2,2.5
	c-1.2,2.2-3,3.9-5.2,5c-0.1,1,0.2,2.1,0.8,2.9c0.6,0.8,1.5,1.4,2.5,1.7h0c0.2,0,0.4,0.2,0.5,0.3c0.1,0.2,0.2,0.4,0.2,0.6v4.2h1.7
	c0.7,0,1.4,0.3,2,0.8c0.5,0.5,0.8,1.2,0.8,2v2.2c0,0.1,0,0.2-0.1,0.4c0,0.1-0.1,0.2-0.2,0.3c-0.1,0.1-0.2,0.2-0.3,0.2
	c-0.1,0-0.2,0.1-0.4,0.1H30.7z M31.6,57.9v1.3h18.9v-1.3c0-0.2-0.1-0.5-0.3-0.7c-0.2-0.2-0.4-0.3-0.7-0.3H32.5
	c-0.2,0-0.5,0.1-0.7,0.3C31.7,57.4,31.6,57.6,31.6,57.9L31.6,57.9z M36,55.1h10v-3.3H36V55.1z M39.1,49.1c-0.2,0.3-0.4,0.6-0.6,0.8
	h5.2c-1-1.1-1.6-2.5-1.6-4C41.7,46,41.4,46,41,46c-0.3,0-0.7,0-1-0.1C40,47.1,39.7,48.2,39.1,49.1L39.1,49.1z M31.5,23v4.4
	c-0.1,4.2,0.9,8.3,2.9,12c1.8,3.1,4.1,4.7,6.6,4.7s4.8-1.7,6.6-4.7c2-3.7,3-7.8,2.9-12V23c0,0,0,0,0,0c0,0,0,0,0,0c0,0,0,0,0,0
	s0,0,0,0H31.6C31.6,22.9,31.5,22.9,31.5,23C31.5,22.9,31.5,22.9,31.5,23L31.5,23z M52.4,27.4c0,2.6-0.3,5.1-1,7.6
	c2.5-2,4.2-4.9,4.8-8.1c0-0.1,0-0.3,0-0.4c0-0.1-0.1-0.3-0.2-0.4c-0.1-0.1-0.2-0.2-0.4-0.3c-0.1-0.1-0.3-0.1-0.4-0.1h-2.8L52.4,27.4
	z M26.1,26.1c-0.1,0.1-0.2,0.2-0.2,0.4c0,0.1,0,0.3,0,0.4c0.5,3.2,2.2,6.1,4.8,8.1c-0.7-2.5-1-5.1-1-7.6v-1.7h-2.8
	c-0.2,0-0.3,0-0.4,0.1C26.3,25.8,26.2,25.9,26.1,26.1L26.1,26.1z M37.6,37.1c-0.1-0.1-0.2-0.2-0.3-0.4c-0.1-0.2-0.1-0.3-0.1-0.5
	l0.5-2.8l-2-2c-0.1-0.1-0.2-0.3-0.3-0.4c0-0.2,0-0.3,0-0.5c0.1-0.2,0.1-0.3,0.3-0.4c0.1-0.1,0.3-0.2,0.5-0.2l2.8-0.4l1.2-2.5
	c0.1-0.2,0.2-0.3,0.3-0.4c0.1-0.1,0.3-0.1,0.5-0.1c0.2,0,0.3,0,0.5,0.1c0.1,0.1,0.3,0.2,0.3,0.4l1.2,2.5l2.8,0.4
	c0.2,0,0.3,0.1,0.5,0.2c0.1,0.1,0.2,0.3,0.3,0.4c0.1,0.2,0.1,0.3,0,0.5s-0.1,0.3-0.3,0.4l-2,2l0.5,2.8c0,0.2,0,0.3-0.1,0.5
	c-0.1,0.2-0.2,0.3-0.3,0.4c-0.2,0.1-0.3,0.2-0.5,0.2c-0.1,0-0.3,0-0.4-0.1L41,35.9l-2.5,1.3c-0.2,0.1-0.3,0.1-0.5,0.1
	C37.9,37.3,37.7,37.2,37.6,37.1L37.6,37.1z M41.4,34l1.3,0.7l-0.2-1.4c0-0.1,0-0.3,0-0.4c0-0.1,0.1-0.3,0.2-0.4l1-1l-1.4-0.2
	c-0.1,0-0.3-0.1-0.4-0.2c-0.1-0.1-0.2-0.2-0.3-0.3L41,29.4l-0.6,1.3c-0.1,0.1-0.2,0.3-0.3,0.3c-0.1,0.1-0.3,0.1-0.4,0.2l-1.4,0.2
	l1,1c0.1,0.1,0.2,0.2,0.2,0.4c0,0.1,0.1,0.3,0,0.4l-0.2,1.4l1.3-0.7c0.1-0.1,0.3-0.1,0.4-0.1C41.1,33.9,41.3,33.9,41.4,34L41.4,34z"
	/>
<g>
	<title>b</title>
	<path class="st2" d="M55.4,41.6c-0.1-0.5-0.2-1-0.4-1.5c-1.1-3.2-3.6-5.6-6.8-6.7c-0.9-0.3-1.8-0.4-2.8-0.3
		c-0.6,0.1-1.1,0.2-1.6,0.5c-0.8,0.3-1.4,0.9-2.1,1.2c-1.2,0.4-2.6,0.4-3.8,0c-0.8-0.3-1.4-0.9-2.1-1.2c-0.5-0.2-1.1-0.4-1.6-0.5
		c-0.9-0.1-1.9,0-2.8,0.3c-3.2,1-5.7,3.5-6.8,6.7c-0.2,0.5-0.3,1-0.4,1.5c-0.3,2,0.2,4,1.2,5.7l5.1,8.5c0.7,1.2,1.8,2.2,3.1,2.8
		c0.4,0.2,0.9,0.3,1.3,0.3c0.7,0,1.8-0.5,2.5-0.9c1.4-0.9,3.3-0.9,4.7,0c0.7,0.4,1.8,0.9,2.5,0.9c0.5,0,0.9-0.1,1.3-0.3
		c1.3-0.6,2.4-1.6,3.1-2.8l5.1-8.5C55.3,45.6,55.7,43.6,55.4,41.6z"/>
	<path class="st2" d="M28.9,22.4c1,0.9,1.9,1.8,2.7,2.8c0.4,0.5,0.7,1,1.1,1.5c0.5,0.7,1.1,1.4,1.9,1.8c0.8,0.4,1.7,0.4,2.5,0.1
		c1.5-0.7,2.2-2.3,1.8-3.8c-0.4-1.4-1.6-2.4-2.9-2.9c-0.5-0.2-0.9-0.4-1.4-0.5c-0.8-0.2-1.6-0.3-2.4-0.4c-1.4-0.1-2.9,0-4.2,0.5
		C28,21.5,28.8,22.4,28.9,22.4z"/>
	<path class="st2" d="M39.8,33.5c0.1,0,0.2,0,0.2,0c0.7,0,1.3-0.5,1.4-1.2c0.4-2.4,1.3-4.6,2.6-6.6c0.4-0.6,0.3-1.5-0.4-2
		c-0.6-0.4-1.5-0.3-2,0.4l0,0c-1.6,2.3-2.6,4.9-3.1,7.7C38.5,32.7,39,33.4,39.8,33.5z"/>
</g>
</svg>
